<svg xmlns="http://www.w3.org/2000/svg" viewBox="0 0 100 125" x="0px" y="0px"><title>baby 2</title><g data-name="Capa 2"><path d="M81.85,60.92,39.33,18.39l-.55-.45a31,31,0,0,0-2.23-2.32A14.28,14.28,0,0,0,16.33,35.8c.09.09.8.85,1.9,1.86h0L61.64,81.11h0a14.28,14.28,0,0,0,20.2-20.2ZM43.66,26.4,74.21,57c-.29-.05-.59-.08-.88-.11l-.25,0c-.34,0-.68,0-1,0-.55,0-1.11,0-1.67,0L43.51,29.92a6.53,6.53,0,0,0,.21-.79c0-.09,0-.19,0-.29a5.55,5.55,0,0,0,.06-.82,1.36,1.36,0,0,0,0-.2l0-.28c0-.14,0-.29,0-.43a4.68,4.68,0,0,0-.08-.54.5.5,0,0,0,0-.17ZM58.18,66.63,32.9,41.35A3.72,3.72,0,0,0,34,38.65c0-3.13-3.33-7-6.12-9.78a1.27,1.27,0,0,0-1.26-.32,3.88,3.88,0,0,1-3.8-1,3.83,3.83,0,0,1-1.14-2.75,3.87,3.87,0,0,1,1.14-2.76,4,4,0,0,1,5.51,0,3.91,3.91,0,0,1,1,3.81,1.33,1.33,0,0,0,.33,1.27c2.73,2.77,6.65,6.09,9.77,6.1a3.92,3.92,0,0,0,2.69-1.07,0,0,0,0,0,0,0L67.35,57.44a14.21,14.21,0,0,0-5.7,3.48,14,14,0,0,0-3.47,5.71ZM14.8,25.74a11.7,11.7,0,0,1,19.94-8.27l0,0a30.41,30.41,0,0,1,2.59,2.76q.53.63,1,1.26l.21.28c.27.38.53.75.76,1.11l.18.29c.25.39.47.79.67,1.16l0,.09a6.68,6.68,0,0,1,.92,4.27s0,.06,0,.09a3.25,3.25,0,0,1-.24.64,3.65,3.65,0,0,1-.62.87,1.37,1.37,0,0,1-.85.31c-1.59,0-4.4-1.85-7.45-4.84a6.5,6.5,0,1,0-5.41,5.41c3,3,4.83,5.87,4.84,7.45a1.06,1.06,0,0,1-.33.85,3.17,3.17,0,0,1-.83.61,2.88,2.88,0,0,1-.69.26h0a6.78,6.78,0,0,1-4.29-.91l-.1-.06c-.37-.19-.76-.41-1.14-.64l-.33-.21c-.34-.22-.7-.46-1.06-.73l-.34-.25c-.39-.3-.78-.6-1.18-.94A29.73,29.73,0,0,1,18.21,34a11.59,11.59,0,0,1-3.41-8.26ZM57.68,73.47,27.13,42.93l.17,0,.52.08.46,0,.27,0h.12l.16,0a4.56,4.56,0,0,0,.92-.09,2.09,2.09,0,0,0,.36-.08,3.29,3.29,0,0,0,.54-.14L57.54,69.66a14.67,14.67,0,0,0,0,1.75c0,.15,0,.29,0,.43,0,.43.07.86.14,1.29,0,.12,0,.23,0,.34ZM80,79.28a11.7,11.7,0,0,1-16.53,0l0,0c-.3-.31-.57-.62-.83-.94-.1-.12-.18-.25-.27-.38a7.42,7.42,0,0,1-.46-.64l-.29-.49c-.11-.2-.22-.39-.32-.59s-.17-.37-.25-.56l-.24-.58c-.07-.19-.14-.38-.19-.57s-.13-.46-.19-.69-.09-.32-.12-.49a12,12,0,0,1-.22-2.55.38.38,0,0,1,0-.1,10.7,10.7,0,0,1,.1-1.25,11.61,11.61,0,0,1,10-10c.4-.05.8-.08,1.2-.1h.17c.4,0,.81,0,1.21,0h.11a11.56,11.56,0,0,1,1.18.17l.64.16.52.14c.23.07.46.15.68.24l.48.19.63.29.51.28c.18.1.37.2.55.32l.6.42.41.3c.33.27.65.55,1,.85a11.7,11.7,0,0,1,0,16.53Zm0,0"/><path d="M78.18,64.59A9.09,9.09,0,1,0,80.84,71a9,9,0,0,0-2.66-6.43Zm-1.83,11A6.52,6.52,0,1,1,78.24,71a6.49,6.49,0,0,1-1.89,4.59Zm0,0"/></g><text x="0" y="115" fill="#000000" font-size="5px" font-weight="bold" font-family="'Helvetica Neue', Helvetica, Arial-Unicode, Arial, Sans-serif">Created by Lucky Day</text><text x="0" y="120" fill="#000000" font-size="5px" font-weight="bold" font-family="'Helvetica Neue', Helvetica, Arial-Unicode, Arial, Sans-serif">from the Noun Project</text></svg>